<svg width="399" height="836" viewBox="0 0 399 836" fill="none" xmlns="http://www.w3.org/2000/svg">
<path d="M0 105.6C0 68.6365 0 50.1548 7.19357 36.0366C13.5212 23.6179 23.6179 13.5212 36.0366 7.19357C50.1548 0 68.6365 0 105.6 0H293.4C330.363 0 348.845 0 362.963 7.19357C375.382 13.5212 385.479 23.6179 391.806 36.0366C399 50.1548 399 68.6365 399 105.6V730.4C399 767.363 399 785.845 391.806 799.963C385.479 812.382 375.382 822.479 362.963 828.806C348.845 836 330.363 836 293.4 836H105.6C68.6365 836 50.1548 836 36.0366 828.806C23.6179 822.479 13.5212 812.382 7.19357 799.963C0 785.845 0 767.363 0 730.4V105.6Z" fill="#D9D9D9"/>
</svg>
