<svg width="387" height="824" viewBox="0 0 387 824" fill="none" xmlns="http://www.w3.org/2000/svg">
<path d="M0 96C0 62.3968 0 45.5953 6.53961 32.7606C12.292 21.4708 21.4708 12.292 32.7606 6.53961C45.5953 0 62.3969 0 96 0H291C324.603 0 341.405 0 354.239 6.53961C365.529 12.292 374.708 21.4708 380.46 32.7606C387 45.5953 387 62.3968 387 96V728C387 761.603 387 778.405 380.46 791.239C374.708 802.529 365.529 811.708 354.239 817.46C341.405 824 324.603 824 291 824H96C62.3969 824 45.5953 824 32.7606 817.46C21.4708 811.708 12.292 802.529 6.53961 791.239C0 778.405 0 761.603 0 728V96Z" fill="black"/>
</svg>
